# This file uses centimeters as units for non-parametric coordinates.

v -0.345436 -1.423358 0.000000
v -0.151575 -1.780768 0.000000
v 0.151575 -1.780769 0.000000
v 0.345436 -1.423358 0.000000
v -0.443241 -0.614102 0.000000
v -0.164511 -0.659157 0.000000
v 0.164511 -0.659157 0.000000
v 0.443241 -0.614102 0.000000
v -0.443241 0.614102 0.000000
v -0.164511 0.659157 0.000000
v 0.164511 0.659157 0.000000
v 0.443241 0.614102 0.000000
v -0.345436 1.423358 0.000000
v -0.151575 1.780768 0.000000
v 0.151575 1.780768 0.000000
v 0.345436 1.423358 0.000000
v -0.272966 -1.623074 0.000000
v 0.000000 -1.833333 0.000000
v 0.272966 -1.623074 0.000000
v -0.397966 -1.123074 0.000000
v -0.158043 -1.303296 0.000000
v -0.324709 -0.636630 0.000000
v 0.158043 -1.303296 0.000000
v 0.000000 -0.666667 0.000000
v 0.397966 -1.123074 0.000000
v 0.324709 -0.636630 0.000000
v -0.458333 0.000000 0.000000
v -0.166667 0.000000 0.000000
v -0.324709 0.636630 0.000000
v 0.166667 0.000000 0.000000
v 0.000000 0.666667 0.000000
v 0.458333 0.000000 0.000000
v 0.324709 0.636630 0.000000
v -0.397966 1.123074 0.000000
v -0.158043 1.303296 0.000000
v -0.272966 1.623074 0.000000
v 0.158043 1.303296 0.000000
v 0.000000 1.833333 0.000000
v 0.397966 1.123074 0.000000
v 0.272966 1.623074 0.000000
v -0.298837 -1.213185 0.000000
v 0.000000 -1.333333 0.000000
v 0.298837 -1.213185 0.000000
v -0.333333 0.000000 0.000000
v 0.000000 0.000000 0.000000
v 0.333333 0.000000 0.000000
v -0.298837 1.213185 0.000000
v 0.000000 1.333333 0.000000
v 0.298837 1.213185 0.000000
vt 0.458333 0.229167
vt 0.416667 0.229167
vt 0.375000 0.250000
vt 0.541667 0.229167
vt 0.500000 0.229167
vt 0.625000 0.250000
vt 0.583333 0.229167
vt 0.416667 0.291667
vt 0.375000 0.291667
vt 0.458333 0.291667
vt 0.458333 0.333333
vt 0.416667 0.333333
vt 0.375000 0.333333
vt 0.500000 0.291667
vt 0.541667 0.291667
vt 0.541667 0.333333
vt 0.500000 0.333333
vt 0.583333 0.291667
vt 0.625000 0.291667
vt 0.625000 0.333333
vt 0.583333 0.333333
vt 0.416667 0.375000
vt 0.375000 0.375000
vt 0.458333 0.375000
vt 0.458333 0.416667
vt 0.416667 0.416667
vt 0.375000 0.416667
vt 0.500000 0.375000
vt 0.541667 0.375000
vt 0.541667 0.416667
vt 0.500000 0.416667
vt 0.583333 0.375000
vt 0.625000 0.375000
vt 0.625000 0.416667
vt 0.583333 0.416667
vt 0.416667 0.458333
vt 0.375000 0.458333
vt 0.458333 0.458333
vt 0.458333 0.520833
vt 0.416667 0.520833
vt 0.375000 0.500000
vt 0.500000 0.458333
vt 0.541667 0.458333
vt 0.541667 0.520833
vt 0.500000 0.520833
vt 0.583333 0.458333
vt 0.625000 0.458333
vt 0.625000 0.500000
vt 0.583333 0.520833
vn 0.000000 -0.000000 -1.000000
vn 0.000000 -0.000000 -1.000000
vn 0.000000 -0.000000 -1.000000
vn 0.000000 -0.000000 -1.000000
vn 0.000000 -0.000000 -1.000000
vn 0.000000 -0.000000 -1.000000
vn 0.000000 -0.000000 -1.000000
vn 0.000000 -0.000000 -1.000000
vn 0.000000 -0.000000 -1.000000
vn 0.000000 -0.000000 -1.000000
vn 0.000000 -0.000000 -1.000000
vn -0.000000 -0.000000 -1.000000
vn -0.000000 -0.000000 -1.000000
vn 0.000000 -0.000000 -1.000000
vn 0.000000 -0.000000 -1.000000
vn -0.000000 -0.000000 -1.000000
vn -0.000000 -0.000000 -1.000000
vn -0.000000 -0.000000 -1.000000
vn -0.000000 -0.000000 -1.000000
vn -0.000000 -0.000000 -1.000000
vn -0.000000 -0.000000 -1.000000
vn 0.000000 -0.000000 -1.000000
vn 0.000000 -0.000000 -1.000000
vn 0.000000 -0.000000 -1.000000
vn 0.000000 -0.000000 -1.000000
vn 0.000000 -0.000000 -1.000000
vn 0.000000 -0.000000 -1.000000
vn 0.000000 -0.000000 -1.000000
vn 0.000000 -0.000000 -1.000000
vn 0.000000 -0.000000 -1.000000
vn 0.000000 -0.000000 -1.000000
vn -0.000000 -0.000000 -1.000000
vn -0.000000 -0.000000 -1.000000
vn -0.000000 -0.000000 -1.000000
vn -0.000000 -0.000000 -1.000000
vn 0.000000 -0.000000 -1.000000
vn 0.000000 -0.000000 -1.000000
vn 0.000000 -0.000000 -1.000000
vn 0.000000 -0.000000 -1.000000
vn 0.000000 -0.000000 -1.000000
vn 0.000000 -0.000000 -1.000000
vn 0.000000 -0.000000 -1.000000
vn -0.000000 -0.000000 -1.000000
vn 0.000000 -0.000000 -1.000000
vn -0.000000 -0.000000 -1.000000
vn -0.000000 -0.000000 -1.000000
vn -0.000000 -0.000000 -1.000000
vn -0.000000 -0.000000 -1.000000
vn -0.000000 -0.000000 -1.000000
f 1/3/1 20/9/2 41/8/3 17/2/4
f 17/2/4 41/8/3 21/10/5 2/1/6
f 41/8/3 22/12/7 6/11/8 21/10/5
f 20/9/2 5/13/9 22/12/7 41/8/3
f 2/1/6 21/10/5 42/14/10 18/5/11
f 18/5/11 42/14/10 23/15/12 3/4/13
f 42/14/10 24/17/14 7/16/15 23/15/12
f 21/10/5 6/11/8 24/17/14 42/14/10
f 3/4/13 23/15/12 43/18/16 19/7/17
f 19/7/17 43/18/16 25/19/18 4/6/19
f 43/18/16 26/21/20 8/20/21 25/19/18
f 23/15/12 7/16/15 26/21/20 43/18/16
f 5/13/9 27/23/22 44/22/23 22/12/7
f 22/12/7 44/22/23 28/24/24 6/11/8
f 44/22/23 29/26/25 10/25/26 28/24/24
f 27/23/22 9/27/27 29/26/25 44/22/23
f 6/11/8 28/24/24 45/28/28 24/17/14
f 24/17/14 45/28/28 30/29/29 7/16/15
f 45/28/28 31/31/30 11/30/31 30/29/29
f 28/24/24 10/25/26 31/31/30 45/28/28
f 7/16/15 30/29/29 46/32/32 26/21/20
f 26/21/20 46/32/32 32/33/33 8/20/21
f 46/32/32 33/35/34 12/34/35 32/33/33
f 30/29/29 11/30/31 33/35/34 46/32/32
f 9/27/27 34/37/36 47/36/37 29/26/25
f 29/26/25 47/36/37 35/38/38 10/25/26
f 47/36/37 36/40/39 14/39/40 35/38/38
f 34/37/36 13/41/41 36/40/39 47/36/37
f 10/25/26 35/38/38 48/42/42 31/31/30
f 31/31/30 48/42/42 37/43/43 11/30/31
f 48/42/42 38/45/44 15/44/45 37/43/43
f 35/38/38 14/39/40 38/45/44 48/42/42
f 11/30/31 37/43/43 49/46/46 33/35/34
f 33/35/34 49/46/46 39/47/47 12/34/35
f 49/46/46 40/49/48 16/48/49 39/47/47
f 37/43/43 15/44/45 40/49/48 49/46/46
v -0.345436 -1.423358 0.000000
v -0.151575 -1.780768 0.000000
v 0.151575 -1.780769 0.000000
v 0.345436 -1.423358 0.000000
v -0.443241 -0.614102 0.000000
v -0.164511 -0.659157 0.000000
v 0.164511 -0.659157 0.000000
v 0.443241 -0.614102 0.000000
v -0.443241 0.614102 0.000000
v -0.164511 0.659157 0.000000
v 0.164511 0.659157 0.000000
v 0.443241 0.614102 0.000000
v -0.345436 1.423358 0.000000
v -0.151575 1.780768 0.000000
v 0.151575 1.780768 0.000000
v 0.345436 1.423358 0.000000
v -0.272966 -1.623074 0.000000
v 0.000000 -1.833333 0.000000
v 0.272966 -1.623074 0.000000
v -0.397966 -1.123074 0.000000
v -0.158043 -1.303296 0.000000
v -0.324709 -0.636630 0.000000
v 0.158043 -1.303296 0.000000
v 0.000000 -0.666667 0.000000
v 0.397966 -1.123074 0.000000
v 0.324709 -0.636630 0.000000
v -0.458333 0.000000 0.000000
v -0.166667 0.000000 0.000000
v -0.324709 0.636630 0.000000
v 0.166667 0.000000 0.000000
v 0.000000 0.666667 0.000000
v 0.458333 0.000000 0.000000
v 0.324709 0.636630 0.000000
v -0.397966 1.123074 0.000000
v -0.158043 1.303296 0.000000
v -0.272966 1.623074 0.000000
v 0.158043 1.303296 0.000000
v 0.000000 1.833333 0.000000
v 0.397966 1.123074 0.000000
v 0.272966 1.623074 0.000000
v -0.298837 -1.213185 0.000000
v 0.000000 -1.333333 0.000000
v 0.298837 -1.213185 0.000000
v -0.333333 0.000000 0.000000
v 0.000000 0.000000 0.000000
v 0.333333 0.000000 0.000000
v -0.298837 1.213185 0.000000
v 0.000000 1.333333 0.000000
v 0.298837 1.213185 0.000000
vt 0.458333 0.229167
vt 0.416667 0.229167
vt 0.375000 0.250000
vt 0.541667 0.229167
vt 0.500000 0.229167
vt 0.625000 0.250000
vt 0.583333 0.229167
vt 0.416667 0.291667
vt 0.375000 0.291667
vt 0.458333 0.291667
vt 0.458333 0.333333
vt 0.416667 0.333333
vt 0.375000 0.333333
vt 0.500000 0.291667
vt 0.541667 0.291667
vt 0.541667 0.333333
vt 0.500000 0.333333
vt 0.583333 0.291667
vt 0.625000 0.291667
vt 0.625000 0.333333
vt 0.583333 0.333333
vt 0.416667 0.375000
vt 0.375000 0.375000
vt 0.458333 0.375000
vt 0.458333 0.416667
vt 0.416667 0.416667
vt 0.375000 0.416667
vt 0.500000 0.375000
vt 0.541667 0.375000
vt 0.541667 0.416667
vt 0.500000 0.416667
vt 0.583333 0.375000
vt 0.625000 0.375000
vt 0.625000 0.416667
vt 0.583333 0.416667
vt 0.416667 0.458333
vt 0.375000 0.458333
vt 0.458333 0.458333
vt 0.458333 0.520833
vt 0.416667 0.520833
vt 0.375000 0.500000
vt 0.500000 0.458333
vt 0.541667 0.458333
vt 0.541667 0.520833
vt 0.500000 0.520833
vt 0.583333 0.458333
vt 0.625000 0.458333
vt 0.625000 0.500000
vt 0.583333 0.520833
vn 0.000000 -0.000000 -1.000000
vn 0.000000 -0.000000 -1.000000
vn 0.000000 -0.000000 -1.000000
vn 0.000000 -0.000000 -1.000000
vn 0.000000 -0.000000 -1.000000
vn 0.000000 -0.000000 -1.000000
vn 0.000000 -0.000000 -1.000000
vn 0.000000 -0.000000 -1.000000
vn 0.000000 -0.000000 -1.000000
vn 0.000000 -0.000000 -1.000000
vn 0.000000 -0.000000 -1.000000
vn -0.000000 -0.000000 -1.000000
vn -0.000000 -0.000000 -1.000000
vn 0.000000 -0.000000 -1.000000
vn 0.000000 -0.000000 -1.000000
vn -0.000000 -0.000000 -1.000000
vn -0.000000 -0.000000 -1.000000
vn -0.000000 -0.000000 -1.000000
vn -0.000000 -0.000000 -1.000000
vn -0.000000 -0.000000 -1.000000
vn -0.000000 -0.000000 -1.000000
vn 0.000000 -0.000000 -1.000000
vn 0.000000 -0.000000 -1.000000
vn 0.000000 -0.000000 -1.000000
vn 0.000000 -0.000000 -1.000000
vn 0.000000 -0.000000 -1.000000
vn 0.000000 -0.000000 -1.000000
vn 0.000000 -0.000000 -1.000000
vn 0.000000 -0.000000 -1.000000
vn 0.000000 -0.000000 -1.000000
vn 0.000000 -0.000000 -1.000000
vn -0.000000 -0.000000 -1.000000
vn -0.000000 -0.000000 -1.000000
vn -0.000000 -0.000000 -1.000000
vn -0.000000 -0.000000 -1.000000
vn 0.000000 -0.000000 -1.000000
vn 0.000000 -0.000000 -1.000000
vn 0.000000 -0.000000 -1.000000
vn 0.000000 -0.000000 -1.000000
vn 0.000000 -0.000000 -1.000000
vn 0.000000 -0.000000 -1.000000
vn 0.000000 -0.000000 -1.000000
vn -0.000000 -0.000000 -1.000000
vn 0.000000 -0.000000 -1.000000
vn -0.000000 -0.000000 -1.000000
vn -0.000000 -0.000000 -1.000000
vn -0.000000 -0.000000 -1.000000
vn -0.000000 -0.000000 -1.000000
vn -0.000000 -0.000000 -1.000000
f 50/52/50 69/58/51 90/57/52 66/51/53
f 66/51/53 90/57/52 70/59/54 51/50/55
f 90/57/52 71/61/56 55/60/57 70/59/54
f 69/58/51 54/62/58 71/61/56 90/57/52
f 51/50/55 70/59/54 91/63/59 67/54/60
f 67/54/60 91/63/59 72/64/61 52/53/62
f 91/63/59 73/66/63 56/65/64 72/64/61
f 70/59/54 55/60/57 73/66/63 91/63/59
f 52/53/62 72/64/61 92/67/65 68/56/66
f 68/56/66 92/67/65 74/68/67 53/55/68
f 92/67/65 75/70/69 57/69/70 74/68/67
f 72/64/61 56/65/64 75/70/69 92/67/65
f 54/62/58 76/72/71 93/71/72 71/61/56
f 71/61/56 93/71/72 77/73/73 55/60/57
f 93/71/72 78/75/74 59/74/75 77/73/73
f 76/72/71 58/76/76 78/75/74 93/71/72
f 55/60/57 77/73/73 94/77/77 73/66/63
f 73/66/63 94/77/77 79/78/78 56/65/64
f 94/77/77 80/80/79 60/79/80 79/78/78
f 77/73/73 59/74/75 80/80/79 94/77/77
f 56/65/64 79/78/78 95/81/81 75/70/69
f 75/70/69 95/81/81 81/82/82 57/69/70
f 95/81/81 82/84/83 61/83/84 81/82/82
f 79/78/78 60/79/80 82/84/83 95/81/81
f 58/76/76 83/86/85 96/85/86 78/75/74
f 78/75/74 96/85/86 84/87/87 59/74/75
f 96/85/86 85/89/88 63/88/89 84/87/87
f 83/86/85 62/90/90 85/89/88 96/85/86
f 59/74/75 84/87/87 97/91/91 80/80/79
f 80/80/79 97/91/91 86/92/92 60/79/80
f 97/91/91 87/94/93 64/93/94 86/92/92
f 84/87/87 63/88/89 87/94/93 97/91/91
f 60/79/80 86/92/92 98/95/95 82/84/83
f 82/84/83 98/95/95 88/96/96 61/83/84
f 98/95/95 89/98/97 65/97/98 88/96/96
f 86/92/92 64/93/94 89/98/97 98/95/95
