# 3ds Max Wavefront OBJ Exporter v0.97b - (c)2007 guruware
# File Created: 21.01.2017 22:22:35

mtllib Exit icon.mtl

#
# object EXIT
#

v  0.0000 -16.2083 -0.0000
v  0.0000 -12.1431 -0.0000
v  -1.9910 -11.9470 -0.0000
v  -2.7841 -15.9341 -0.0000
v  -3.9055 -11.3662 -0.0000
v  -5.4612 -15.1220 -0.0000
v  -5.6699 -10.4231 -0.0000
v  -7.9284 -13.8033 -0.0000
v  -7.2164 -9.1540 -0.0000
v  -10.0909 -12.0285 -0.0000
v  -8.4856 -7.6075 -0.0000
v  -11.8657 -9.8660 -0.0000
v  -9.4286 -5.8431 -0.0000
v  -13.1844 -7.3988 -0.0000
v  -10.0094 -3.9286 -0.0000
v  -13.9965 -4.7217 -0.0000
v  -10.2055 -1.9376 -0.0000
v  -14.2707 -1.9376 -0.0000
v  -10.0094 0.0534 -0.0000
v  -13.9965 0.8465 -0.0000
v  -9.4286 1.9679 0.0000
v  -13.1844 3.5236 0.0000
v  -8.4855 3.7323 0.0000
v  -11.8657 5.9908 0.0000
v  -8.6020 6.6644 0.0000
v  -10.0909 8.1533 0.0000
v  -7.6482 9.4039 -0.0000
v  -7.9928 9.8960 -0.0000
v  0.0000 -2.1539 -0.0000
v  0.0000 16.3904 0.0000
v  -0.6363 16.3277 0.0000
v  -0.6363 -2.0912 -0.0000
v  -1.2482 -1.9056 -0.0000
v  -1.2482 16.1421 0.0000
v  -1.8121 15.8407 0.0000
v  -1.8121 -1.6042 -0.0000
v  -2.3063 15.4351 0.0000
v  -2.3064 -1.1986 -0.0000
v  -2.7120 14.9408 0.0000
v  -2.7120 -0.7043 -0.0000
v  -3.0134 14.3769 0.0000
v  -3.0134 -0.1404 -0.0000
v  -3.1990 13.7650 0.0000
v  -3.1990 0.4714 -0.0000
v  -3.2617 13.1291 0.0000
v  -3.2617 1.1078 -0.0000
v  -4.8138 8.6598 -0.0000
v  -5.1361 9.3923 -0.0000
v  -6.8163 8.2158 -0.0000
v  -6.3661 7.5728 -0.0000
v  -4.7964 7.8597 -0.0000
v  -5.9844 7.0277 -0.0000
v  -5.0864 7.1137 -0.0000
v  -5.6699 6.5480 0.0000
v  -5.7143 9.9457 -0.0000
v  -7.2666 8.8588 -0.0000
v  -6.4602 10.2358 -0.0000
v  -7.2603 10.2183 -0.0000
v  -7.2164 5.2788 0.0000
v  2.7841 -15.9341 -0.0000
v  1.9910 -11.9470 -0.0000
v  5.4612 -15.1220 -0.0000
v  3.9055 -11.3662 -0.0000
v  7.9284 -13.8033 -0.0000
v  5.6699 -10.4231 -0.0000
v  10.0909 -12.0285 -0.0000
v  7.2164 -9.1540 -0.0000
v  11.8657 -9.8660 -0.0000
v  8.4856 -7.6075 -0.0000
v  13.1844 -7.3988 -0.0000
v  9.4286 -5.8431 -0.0000
v  13.9965 -4.7217 -0.0000
v  10.0094 -3.9286 -0.0000
v  14.2707 -1.9376 -0.0000
v  10.2055 -1.9376 -0.0000
v  13.9965 0.8465 -0.0000
v  10.0094 0.0534 -0.0000
v  13.1844 3.5236 0.0000
v  9.4286 1.9679 0.0000
v  11.8657 5.9908 0.0000
v  8.4855 3.7323 0.0000
v  10.0909 8.1533 0.0000
v  8.6020 6.6644 0.0000
v  7.9928 9.8960 -0.0000
v  7.6482 9.4039 -0.0000
v  0.6363 16.3277 0.0000
v  0.6363 -2.0912 -0.0000
v  1.8121 15.8407 0.0000
v  1.2482 16.1421 0.0000
v  1.2482 -1.9056 -0.0000
v  1.8121 -1.6042 -0.0000
v  2.3063 15.4351 0.0000
v  2.3064 -1.1986 -0.0000
v  2.7120 14.9408 0.0000
v  2.7120 -0.7043 -0.0000
v  3.0134 14.3769 0.0000
v  3.0134 -0.1404 -0.0000
v  3.1990 13.7650 0.0000
v  3.1990 0.4714 -0.0000
v  3.2617 13.1291 0.0000
v  3.2617 1.1078 -0.0000
v  4.8138 8.6598 -0.0000
v  6.3661 7.5728 -0.0000
v  6.8163 8.2158 -0.0000
v  5.1361 9.3923 -0.0000
v  4.7964 7.8597 -0.0000
v  5.9844 7.0277 -0.0000
v  5.0864 7.1137 -0.0000
v  5.6699 6.5480 0.0000
v  7.2666 8.8588 -0.0000
v  5.7143 9.9457 -0.0000
v  6.4602 10.2358 -0.0000
v  7.2603 10.2183 -0.0000
v  7.2164 5.2788 0.0000
# 114 vertices

vn 0.0000 -0.0000 1.0000
vn 0.0000 0.0000 1.0000
vn -0.0000 -0.0000 1.0000
vn -0.0000 0.0000 1.0000
# 4 vertex normals

vt 0.9167 0.5000 0.0000
vt 1.0000 0.5000 0.0000
vt 1.0000 0.5313 0.0000
vt 0.9167 0.5313 0.0000
vt 1.0000 0.5625 0.0000
vt 0.9167 0.5625 0.0000
vt 1.0000 0.5938 0.0000
vt 0.9167 0.5938 0.0000
vt 1.0000 0.6250 0.0000
vt 0.9167 0.6250 0.0000
vt 1.0000 0.6563 0.0000
vt 0.9167 0.6563 0.0000
vt 1.0000 0.6875 0.0000
vt 0.9167 0.6875 0.0000
vt 1.0000 0.7188 0.0000
vt 0.9167 0.7188 0.0000
vt 1.0000 0.7500 0.0000
vt 0.9167 0.7500 0.0000
vt 1.0000 0.7813 0.0000
vt 0.9167 0.7813 0.0000
vt 1.0000 0.8125 0.0000
vt 0.9167 0.8125 0.0000
vt 1.0000 0.8438 0.0000
vt 0.9167 0.8438 0.0000
vt 0.9598 0.8750 0.0000
vt 0.9167 0.8750 0.0000
vt 0.9290 0.9063 0.0000
vt 0.9167 0.9063 0.0000
vt 1.0000 0.5000 -0.2500
vt 0.0000 0.5000 -0.2500
vt 0.0096 0.4025 -0.2500
vt 0.9904 0.4025 -0.2500
vt 0.9619 0.3087 -0.2500
vt 0.0381 0.3087 -0.2500
vt 0.0843 0.2222 -0.2500
vt 0.9157 0.2222 -0.2500
vt 0.1464 0.1464 -0.2500
vt 0.8536 0.1464 -0.2500
vt 0.2222 0.0843 -0.2500
vt 0.7778 0.0843 -0.2500
vt 0.3087 0.0381 -0.2500
vt 0.6913 0.0381 -0.2500
vt 0.4025 0.0096 -0.2500
vt 0.5975 0.0096 -0.2500
vt 0.5000 0.0000 -0.2500
vt 0.5000 0.5000 -0.2500
vt 0.5000 0.3087 -0.2500
vt 0.5000 0.1464 -0.2500
vt 0.5000 0.0843 -0.2500
vt 0.9904 0.5975 -0.2500
vt 0.5000 0.6913 -0.2500
vt 0.9157 0.7778 -0.2500
vt 0.5000 0.8536 -0.2500
vt 0.7778 0.9157 -0.2500
vt 0.5975 0.9904 -0.2500
vt 1.0000 0.8750 0.0000
vt 1.0000 0.9063 0.0000
vt 0.9881 0.9063 0.0000
vt 0.9725 0.9063 0.0000
vt 0.9586 0.9063 0.0000
vt 0.9426 0.9063 0.0000
# 61 texture coords

g EXIT
usemtl wire_135059008
s 4
f 1/1/1 2/2/1 3/3/1 4/4/1 
f 4/4/1 3/3/1 5/5/1 6/6/1 
f 6/6/1 5/5/1 7/7/1 8/8/1 
f 8/8/1 7/7/1 9/9/1 10/10/1 
f 10/10/1 9/9/1 11/11/1 12/12/1 
f 12/12/1 11/11/1 13/13/1 14/14/1 
f 14/14/1 13/13/1 15/15/1 16/16/1 
f 16/16/1 15/15/1 17/17/1 18/18/1 
f 18/18/1 17/17/1 19/19/1 20/20/1 
f 20/20/1 19/19/1 21/21/1 22/22/1 
f 22/22/1 21/21/1 23/23/1 24/24/1 
f 24/24/1 23/23/1 25/25/2 26/26/2 
f 26/26/2 25/25/2 27/27/2 28/28/2 
s 1
f 29/29/3 30/30/1 31/31/3 32/32/1 
f 33/33/1 34/34/3 35/35/3 36/36/1 
f 32/32/1 31/31/3 34/34/3 33/33/1 
f 36/36/1 35/35/3 37/37/3 38/38/1 
f 38/38/1 37/37/3 39/39/3 40/40/1 
f 40/40/1 39/39/3 41/41/3 42/42/1 
f 42/42/1 41/41/3 43/43/3 44/44/1 
f 44/44/1 43/43/3 45/45/3 46/45/1 
f 47/36/2 48/32/2 49/46/2 50/47/2 
f 51/38/2 47/36/2 50/47/2 52/48/2 
f 53/42/2 51/38/2 52/48/2 54/49/4 
f 49/46/2 48/32/2 55/50/2 56/51/2 
f 56/51/2 55/50/2 57/52/2 27/53/2 
f 27/53/2 57/52/2 58/54/2 28/55/2 
s 4
f 23/23/1 59/56/2 25/25/2 
f 59/56/2 54/57/4 52/58/4 25/25/2 
f 25/25/2 52/58/4 50/59/2 49/60/2 
f 25/25/2 49/60/2 56/61/2 27/27/2 
f 1/1/1 60/4/1 61/3/1 2/2/1 
f 60/4/1 62/6/1 63/5/1 61/3/1 
f 62/6/1 64/8/1 65/7/1 63/5/1 
f 64/8/1 66/10/1 67/9/1 65/7/1 
f 66/10/1 68/12/1 69/11/1 67/9/1 
f 68/12/1 70/14/1 71/13/1 69/11/1 
f 70/14/1 72/16/1 73/15/1 71/13/1 
f 72/16/1 74/18/1 75/17/1 73/15/1 
f 74/18/1 76/20/1 77/19/1 75/17/1 
f 76/20/1 78/22/1 79/21/1 77/19/1 
f 78/22/1 80/24/1 81/23/1 79/21/1 
f 80/24/1 82/26/4 83/25/4 81/23/1 
f 82/26/4 84/28/4 85/27/4 83/25/4 
s 1
f 86/31/1 30/30/1 29/29/3 87/32/3 
f 88/35/1 89/34/1 90/33/3 91/36/3 
f 89/34/1 86/31/1 87/32/3 90/33/3 
f 92/37/1 88/35/1 91/36/3 93/38/3 
f 94/39/1 92/37/1 93/38/3 95/40/3 
f 96/41/1 94/39/1 95/40/3 97/42/3 
f 98/43/1 96/41/1 97/42/3 99/44/3 
f 100/45/1 98/43/1 99/44/3 101/45/3 
f 102/36/4 103/47/4 104/46/4 105/32/4 
f 106/38/4 107/48/4 103/47/4 102/36/4 
f 108/42/4 109/49/2 107/48/4 106/38/4 
f 104/46/4 110/51/4 111/50/4 105/32/4 
f 110/51/4 85/53/4 112/52/4 111/50/4 
f 85/53/4 84/55/4 113/54/4 112/52/4 
s 4
f 81/23/1 83/25/4 114/56/4 
f 114/56/4 83/25/4 107/58/2 109/57/2 
f 83/25/4 104/60/4 103/59/4 107/58/2 
f 83/25/4 85/27/4 110/61/4 104/60/4 
# 60 polygons - 2 triangles

